<?xml version="1.0" encoding="utf-8" standalone="no"?>
<!DOCTYPE svg PUBLIC "-//W3C//DTD SVG 1.1//EN"
  "http://www.w3.org/Graphics/SVG/1.1/DTD/svg11.dtd">
<!-- Created with matplotlib (http://matplotlib.org/) -->
<svg height="720pt" version="1.1" viewBox="0 0 1440 720" width="1440pt" xmlns="http://www.w3.org/2000/svg" xmlns:xlink="http://www.w3.org/1999/xlink">
 <defs>
  <style type="text/css">
*{stroke-linecap:butt;stroke-linejoin:round;stroke-miterlimit:100000;}
  </style>
 </defs>
 <g id="figure_1">
  <g id="patch_1">
   <path d="M 0 720 
L 1440 720 
L 1440 0 
L 0 0 
z
" style="fill:#ffffff;"/>
  </g>
  <g id="axes_1">
   <g id="patch_2">
    <path d="M 180 630 
L 1296 630 
L 1296 72 
L 180 72 
z
" style="fill:#ffffff;"/>
   </g>
   <g id="line2d_1">
    <path clip-path="url(#p0233aef954)" d="M 180 513.837721 
L 183.999 424.055524 
L 191.346 265.745555 
L 192.648 244.699338 
L 193.95 227.025211 
L 194.601 220.476381 
L 195.066 217.790061 
L 195.345 217.137422 
L 195.531 217.088051 
L 195.717 217.317437 
L 195.996 218.103065 
L 196.461 220.235897 
L 197.577 226.937383 
L 199.53 239.401642 
L 200.274 246.234855 
L 201.111 256.039536 
L 202.041 269.683063 
L 203.064 288.28167 
L 206.319 350.60611 
L 207.249 362.689419 
L 208.179 371.807888 
L 210.132 389.890144 
L 211.434 405.172909 
L 213.294 426.756518 
L 214.41 437.06576 
L 215.526 445.265389 
L 218.409 464.227979 
L 219.06 467.186628 
L 219.525 468.462499 
L 219.804 468.818176 
L 220.083 468.838328 
L 220.362 468.505985 
L 220.734 467.496533 
L 221.199 465.324913 
L 221.757 461.468428 
L 222.501 454.433995 
L 223.431 443.258286 
L 227.802 387.133011 
L 228.639 380.200372 
L 229.29 376.564568 
L 229.755 375.054032 
L 230.127 374.519337 
L 230.406 374.507176 
L 230.685 374.815772 
L 231.057 375.694137 
L 231.522 377.46718 
L 232.173 380.993171 
L 233.103 387.518367 
L 234.126 396.252509 
L 235.149 406.901453 
L 236.358 422.032817 
L 238.032 446.073435 
L 239.706 469.160952 
L 240.822 481.837718 
L 241.752 489.983628 
L 242.496 494.618473 
L 243.054 496.871091 
L 243.519 497.901063 
L 243.798 498.141105 
L 244.077 498.103763 
L 244.356 497.801821 
L 244.728 497.011321 
L 245.193 495.438672 
L 245.751 492.733385 
L 246.495 487.837373 
L 247.425 480.014399 
L 248.82 466.051017 
L 254.865 403.466115 
L 255.888 395.886916 
L 256.632 391.780715 
L 257.376 388.901073 
L 258.027 387.20586 
L 258.771 385.865058 
L 259.887 384.375518 
L 261.096 383.113779 
L 262.305 382.172375 
L 263.979 381.188894 
L 264.723 380.900185 
L 265.188 380.943766 
L 265.56 381.209433 
L 265.932 381.754364 
L 266.397 382.919121 
L 266.862 384.711492 
L 267.42 387.765818 
L 268.071 392.556139 
L 268.908 400.412438 
L 270.117 414.065315 
L 273.093 451.294194 
L 276.162 488.28698 
L 277.371 500.469688 
L 278.208 506.853809 
L 278.859 510.370156 
L 279.417 512.403497 
L 279.975 513.673661 
L 280.533 514.372159 
L 281.091 514.705335 
L 281.928 514.907296 
L 283.974 515.348794 
L 285.834 515.720803 
L 287.694 515.870202 
L 289.182 515.744901 
L 294.483 515.012146 
L 295.971 515.179169 
L 298.017 515.396775 
L 298.947 515.309349 
L 299.598 515.009861 
L 300.156 514.5265 
L 300.714 513.767645 
L 301.365 512.437965 
L 302.016 510.581542 
L 302.853 507.472181 
L 303.876 502.765073 
L 304.992 496.585969 
L 306.108 489.163151 
L 307.131 480.770864 
L 308.247 469.632834 
L 309.642 453.231748 
L 313.734 403.473874 
L 315.222 389.006726 
L 316.989 374.001706 
L 318.384 363.832081 
L 319.407 357.981328 
L 320.244 354.400592 
L 320.988 352.139473 
L 321.639 350.861275 
L 322.197 350.250196 
L 322.662 350.052028 
L 323.127 350.118573 
L 323.592 350.43135 
L 324.15 351.080216 
L 325.08 352.56035 
L 327.033 355.690924 
L 328.428 357.916493 
L 329.451 360.030693 
L 330.753 363.29915 
L 332.52 367.718541 
L 333.264 369.005658 
L 334.194 370.11875 
L 335.217 371.347924 
L 335.868 372.523501 
L 336.519 374.234386 
L 337.17 376.652717 
L 337.914 380.390485 
L 338.844 386.447126 
L 339.96 395.364084 
L 341.541 410.032174 
L 347.214 464.517395 
L 348.051 469.876405 
L 348.795 473.245598 
L 349.353 474.905491 
L 349.818 475.738511 
L 350.19 476.059148 
L 350.562 476.099294 
L 350.934 475.881231 
L 351.399 475.270434 
L 351.957 474.095008 
L 352.794 471.687144 
L 354.282 466.588076 
L 355.398 462.022296 
L 356.421 456.815482 
L 358.932 443.326705 
L 359.583 441.206655 
L 360.141 440.000411 
L 360.699 439.304239 
L 361.164 439.09203 
L 361.536 439.145506 
L 362.001 439.472259 
L 362.559 440.199304 
L 363.303 441.623728 
L 364.047 443.519044 
L 364.791 446.03292 
L 365.535 449.349855 
L 366.372 454.175118 
L 367.395 461.470809 
L 369.069 475.446862 
L 370.743 488.751656 
L 371.766 495.254868 
L 372.603 499.339525 
L 373.347 502.043081 
L 374.091 503.971829 
L 374.835 505.302042 
L 375.579 506.196638 
L 376.137 506.564951 
L 376.509 506.609044 
L 376.881 506.442347 
L 377.253 506.009279 
L 377.718 505.005978 
L 378.276 503.121935 
L 380.043 496.460828 
L 380.601 495.324281 
L 381.159 494.6536 
L 381.81 494.220368 
L 383.577 493.20051 
L 384.135 492.508823 
L 384.786 491.300061 
L 385.716 488.99707 
L 387.204 485.180752 
L 387.855 484.143401 
L 388.413 483.664427 
L 388.971 483.486336 
L 389.436 483.547768 
L 389.994 483.871792 
L 390.924 484.770184 
L 391.575 485.297343 
L 392.04 485.415602 
L 392.412 485.302873 
L 392.784 484.985739 
L 393.249 484.286784 
L 393.807 483.00135 
L 394.458 480.891079 
L 395.202 477.712589 
L 396.225 472.289354 
L 397.713 464.388055 
L 398.364 462.034523 
L 398.922 460.835198 
L 399.294 460.440776 
L 399.666 460.326962 
L 400.038 460.448023 
L 400.503 460.851189 
L 401.247 461.853671 
L 402.549 464.050178 
L 404.316 467.41461 
L 404.967 469.304202 
L 405.618 472.002549 
L 406.269 475.684231 
L 407.106 481.776429 
L 409.71 501.980902 
L 410.547 506.480971 
L 411.291 509.354759 
L 411.942 511.078181 
L 412.593 512.169543 
L 413.151 512.712962 
L 413.802 513.036302 
L 414.546 513.147356 
L 415.569 513.052377 
L 417.15 512.65857 
L 418.731 512.034506 
L 423.567 509.771491 
L 424.59 509.625169 
L 425.52 509.724013 
L 426.543 510.06638 
L 427.566 510.651915 
L 429.333 512.003325 
L 430.821 512.989405 
L 432.402 513.751629 
L 434.169 514.34882 
L 435.843 514.71731 
L 437.331 514.801682 
L 441.702 514.706761 
L 442.167 514.402861 
L 442.632 513.852958 
L 443.19 512.845859 
L 443.841 511.211018 
L 444.585 508.715128 
L 445.236 505.790927 
L 445.887 501.875718 
L 446.631 495.857177 
L 447.561 486.130894 
L 449.328 464.542477 
L 450.909 443.086747 
L 452.397 419.649177 
L 455.652 366.86588 
L 456.768 352.688296 
L 457.791 342.445229 
L 458.721 335.384883 
L 459.465 331.360859 
L 460.023 329.360849 
L 460.488 328.351978 
L 460.86 327.938155 
L 461.232 327.832916 
L 461.604 328.011172 
L 461.976 328.475203 
L 462.441 329.510622 
L 462.906 331.154255 
L 463.464 334.097608 
L 464.115 338.957897 
L 465.045 348.003662 
L 466.626 363.448 
L 467.463 369.245677 
L 468.207 372.829722 
L 468.951 375.348102 
L 470.16 378.456533 
L 472.671 384.481293 
L 473.694 386.389903 
L 474.438 387.389234 
L 475.089 387.891127 
L 475.74 388.074461 
L 477.321 388.299341 
L 477.786 388.676926 
L 478.344 389.463754 
L 478.902 390.681761 
L 479.46 392.416329 
L 480.111 395.195545 
L 480.855 399.432234 
L 481.785 406.140708 
L 486.435 441.917942 
L 488.388 457.776059 
L 491.085 479.799991 
L 491.922 484.658703 
L 492.48 486.839963 
L 492.945 487.88509 
L 493.224 488.140201 
L 493.503 488.098826 
L 493.782 487.742958 
L 494.154 486.747316 
L 494.619 484.599099 
L 495.177 480.630063 
L 495.828 474.142147 
L 496.572 464.451224 
L 497.502 449.333498 
L 498.804 424.234459 
L 500.664 383.925359 
L 502.338 342.942517 
L 503.826 306.77277 
L 504.384 298.454926 
L 504.756 295.394952 
L 505.128 293.968606 
L 505.407 293.653938 
L 505.686 293.744009 
L 506.058 294.201516 
L 506.895 295.716506 
L 507.546 297.335766 
L 508.104 299.327099 
L 508.755 302.548153 
L 509.592 307.933806 
L 510.801 317.413113 
L 511.917 327.969904 
L 513.033 340.99514 
L 514.149 353.553762 
L 514.707 357.814997 
L 515.172 360.031589 
L 515.544 361.018251 
L 515.916 361.43054 
L 516.195 361.439009 
L 516.567 361.141232 
L 517.032 360.387086 
L 517.683 358.829593 
L 518.706 355.680919 
L 519.822 351.447678 
L 521.031 345.819377 
L 522.891 337.101184 
L 524.1 332.572429 
L 525.96 326.59114 
L 526.89 324.144043 
L 527.541 322.93123 
L 528.099 322.289371 
L 528.564 322.029343 
L 529.122 321.987771 
L 529.773 322.190909 
L 530.889 322.817988 
L 532.563 324.02755 
L 533.493 324.978894 
L 534.423 326.233412 
L 535.167 327.57337 
L 535.911 329.389459 
L 536.655 331.826492 
L 537.306 334.726582 
L 537.957 338.61316 
L 538.701 344.572299 
L 539.538 353.399768 
L 540.561 366.939593 
L 542.328 394.070254 
L 546.699 461.360289 
L 548.466 485.806351 
L 549.582 498.497271 
L 550.419 505.562477 
L 551.07 509.317515 
L 551.628 511.398123 
L 552.186 512.632198 
L 552.744 513.283184 
L 553.395 513.648993 
L 554.511 513.952479 
L 555.999 514.399229 
L 557.301 515.060865 
L 559.719 516.324729 
L 561.021 516.679829 
L 563.346 517.193354 
L 564.741 517.861349 
L 566.787 518.844942 
L 567.531 518.921959 
L 568.275 518.751624 
L 568.926 518.385046 
L 569.67 517.681901 
L 570.414 516.659712 
L 571.158 515.230024 
L 571.902 513.271988 
L 572.646 510.596798 
L 573.39 506.944584 
L 574.134 502.135066 
L 575.064 494.508697 
L 576.459 480.76409 
L 578.319 462.694712 
L 579.435 453.780824 
L 580.458 447.233641 
L 581.481 442.091388 
L 582.318 438.910932 
L 583.062 436.87685 
L 583.62 435.902788 
L 584.085 435.515568 
L 584.364 435.497896 
L 584.643 435.660325 
L 585.015 436.172799 
L 585.48 437.295063 
L 586.038 439.3015 
L 586.782 442.874244 
L 588.084 450.467283 
L 589.851 460.498398 
L 590.874 465.089876 
L 591.897 468.656218 
L 593.385 472.857728 
L 595.245 478.284813 
L 597.198 484.009837 
L 597.942 485.503947 
L 598.5 486.168707 
L 598.872 486.353302 
L 599.244 486.307716 
L 599.616 486.018871 
L 600.081 485.294481 
L 600.546 484.144682 
L 601.104 482.187472 
L 601.848 478.64474 
L 602.871 472.444809 
L 604.731 461.035319 
L 605.568 457.310063 
L 606.219 455.309454 
L 606.777 454.22154 
L 607.242 453.718111 
L 607.707 453.519348 
L 608.172 453.556072 
L 608.73 453.85255 
L 609.288 454.407843 
L 609.846 455.254611 
L 610.404 456.463035 
L 611.055 458.476515 
L 611.706 461.283544 
L 612.45 465.539441 
L 613.473 472.88239 
L 616.077 492.43885 
L 616.914 497.038717 
L 617.658 500.017991 
L 618.309 501.799479 
L 618.96 502.959179 
L 619.611 503.670486 
L 620.355 504.141197 
L 621.471 504.5402 
L 623.889 505.353621 
L 627.051 506.458559 
L 628.539 506.728702 
L 630.771 506.84459 
L 633.189 506.936247 
L 638.304 507.557332 
L 640.35 507.851948 
L 641.28 507.783595 
L 642.024 507.503353 
L 642.768 506.963565 
L 643.419 506.235631 
L 644.07 505.154107 
L 644.628 503.793846 
L 645.186 501.880642 
L 645.837 498.806267 
L 646.581 494.118961 
L 647.511 486.655227 
L 648.813 474.077377 
L 651.324 447.028363 
L 654.114 417.669501 
L 655.509 404.989161 
L 656.532 397.596875 
L 657.369 393.09933 
L 658.113 390.221582 
L 658.857 388.236761 
L 659.508 387.110041 
L 660.159 386.404505 
L 660.996 385.846232 
L 663.786 384.231889 
L 666.39 382.432517 
L 666.762 382.473534 
L 667.134 382.734824 
L 667.506 383.263897 
L 667.971 384.346403 
L 668.529 386.274307 
L 669.18 389.33756 
L 670.017 394.474799 
L 671.04 402.388017 
L 672.342 414.486241 
L 674.109 433.263765 
L 676.713 463.789055 
L 678.48 483.105717 
L 679.596 493.030968 
L 680.526 499.363418 
L 681.27 503.076333 
L 682.014 505.728247 
L 682.758 507.547361 
L 683.502 508.759147 
L 684.153 509.438519 
L 684.804 509.797572 
L 685.455 509.878905 
L 686.292 509.717869 
L 688.71 508.874627 
L 690.198 508.475857 
L 692.151 508.230925 
L 693.732 508.272184 
L 697.638 508.512121 
L 700.056 508.212716 
L 701.823 507.856243 
L 707.031 506.324667 
L 707.868 505.602515 
L 708.612 504.661568 
L 709.263 503.465929 
L 709.821 501.996953 
L 710.472 499.566392 
L 711.123 496.214956 
L 711.867 491.219795 
L 712.89 482.681507 
L 714.099 470.531998 
L 715.215 457.026796 
L 716.331 440.684366 
L 717.447 420.968265 
L 718.656 395.385286 
L 720.237 356.529495 
L 723.864 266.476402 
L 724.701 251.820037 
L 726.282 229.45578 
L 728.514 198.548195 
L 729.072 194.155688 
L 729.444 192.608626 
L 729.723 192.192651 
L 729.909 192.260154 
L 730.188 192.844558 
L 730.56 194.402763 
L 731.211 198.510424 
L 732.42 206.296748 
L 733.164 209.58007 
L 734.28 213.389048 
L 735.768 217.654845 
L 736.512 219.247977 
L 738.093 222.247949 
L 738.837 224.603306 
L 739.953 228.14192 
L 740.883 230.824586 
L 741.348 232.943751 
L 741.906 236.700245 
L 742.557 243.028403 
L 743.301 252.78048 
L 744.231 268.2535 
L 745.44 292.633637 
L 746.928 327.441602 
L 751.02 427.118139 
L 752.229 448.497667 
L 753.252 463.097462 
L 754.182 473.275238 
L 754.926 479.307318 
L 755.577 483.082045 
L 756.228 485.637333 
L 756.879 487.307469 
L 757.53 488.374933 
L 758.274 489.120773 
L 759.204 489.702085 
L 760.785 490.639791 
L 761.622 491.429112 
L 762.552 492.625055 
L 763.761 494.582276 
L 765.993 498.278683 
L 766.923 499.351532 
L 767.853 500.108995 
L 769.062 500.785622 
L 771.201 501.938941 
L 774.549 504.102652 
L 776.409 504.936665 
L 779.757 506.166002 
L 781.059 506.478486 
L 782.268 506.5075 
L 783.291 506.301161 
L 784.5 505.8079 
L 785.151 505.325318 
L 785.616 504.726187 
L 786.081 503.778877 
L 786.639 502.040063 
L 787.197 499.546841 
L 787.941 495.022198 
L 788.871 487.705632 
L 790.173 475.382577 
L 792.591 450.036563 
L 795.195 420.546682 
L 798.357 384.108967 
L 799.659 372.107222 
L 800.868 362.933417 
L 801.891 356.723879 
L 802.635 353.4193 
L 803.1 352.197522 
L 803.379 351.87938 
L 803.565 351.863171 
L 803.844 352.152901 
L 804.123 352.835341 
L 804.495 354.366563 
L 804.96 357.253234 
L 805.611 362.871864 
L 806.541 373.221732 
L 808.029 392.848765 
L 810.168 424.056137 
L 811.935 453.26628 
L 813.888 485.352636 
L 814.818 497.33529 
L 815.655 505.33919 
L 816.306 509.724505 
L 816.957 512.632078 
L 817.515 514.155741 
L 818.073 515.045705 
L 818.631 515.545929 
L 819.468 515.971436 
L 821.514 516.686381 
L 822.723 516.894357 
L 823.839 516.861573 
L 825.141 516.590337 
L 827.466 515.841038 
L 828.768 515.184841 
L 829.884 514.381425 
L 830.721 513.539888 
L 831.372 512.571445 
L 832.023 511.136196 
L 832.674 509.100135 
L 833.511 505.597483 
L 835.836 495.185602 
L 836.487 493.425747 
L 837.045 492.453855 
L 837.603 491.890249 
L 838.161 491.642266 
L 838.812 491.624014 
L 840.951 492.023165 
L 841.695 492.299048 
L 842.346 492.79934 
L 842.904 493.514118 
L 843.555 494.755149 
L 844.299 496.713007 
L 846.252 502.276888 
L 846.717 502.902687 
L 847.089 503.044161 
L 847.368 502.919689 
L 847.74 502.431704 
L 848.205 501.304132 
L 848.763 499.24297 
L 849.507 495.556345 
L 850.902 487.246412 
L 853.506 470.484491 
L 855.087 458.637786 
L 856.668 445.089325 
L 858.249 429.596589 
L 859.83 411.762595 
L 864.015 362.932508 
L 865.41 349.531944 
L 866.526 340.720781 
L 867.549 334.357601 
L 868.386 330.351473 
L 869.037 328.098448 
L 869.595 326.901942 
L 869.967 326.527055 
L 870.246 326.4812 
L 870.525 326.642062 
L 870.897 327.175753 
L 871.362 328.332684 
L 871.92 330.364981 
L 872.757 334.39304 
L 875.454 348.276576 
L 876.105 350.300298 
L 876.57 351.057124 
L 876.849 351.181433 
L 877.128 351.043725 
L 877.407 350.644084 
L 877.779 349.729285 
L 878.337 347.635541 
L 879.081 343.744972 
L 880.104 336.993932 
L 881.871 323.681127 
L 883.452 310.223144 
L 885.033 294.477401 
L 887.544 269.240238 
L 888.288 264.008962 
L 888.939 260.915149 
L 889.404 259.59498 
L 889.776 259.035633 
L 890.148 258.856261 
L 890.52 258.970277 
L 891.078 259.478451 
L 892.194 260.58312 
L 892.752 260.850868 
L 893.217 260.860171 
L 893.682 260.669914 
L 894.333 260.120951 
L 895.17 259.417575 
L 895.542 259.363034 
L 895.914 259.58068 
L 896.286 260.119104 
L 896.751 261.276803 
L 897.402 263.680381 
L 898.332 268.173743 
L 901.215 282.962539 
L 903.261 292.319775 
L 904.377 298.915877 
L 905.772 307.063156 
L 908.097 318.964305 
L 909.306 328.010385 
L 911.538 344.634 
L 913.119 356.544183 
L 914.235 366.502862 
L 915.165 376.670959 
L 916.188 390.636298 
L 920.094 447.504545 
L 921.396 461.272974 
L 922.977 475.556636 
L 924.279 485.445676 
L 925.209 491.028501 
L 925.86 493.854531 
L 926.325 495.138679 
L 926.697 495.655558 
L 926.976 495.728866 
L 927.255 495.540435 
L 927.627 494.93034 
L 928.278 493.243603 
L 929.115 491.158298 
L 929.58 490.54065 
L 929.952 490.40338 
L 930.324 490.562716 
L 930.789 491.092873 
L 931.533 492.367653 
L 933.114 495.135279 
L 933.858 496.019343 
L 934.509 496.487525 
L 935.439 496.828583 
L 935.997 497.122263 
L 936.462 497.630292 
L 936.927 498.488121 
L 937.485 500.025872 
L 938.322 503.155048 
L 939.438 507.276547 
L 939.903 508.337413 
L 940.275 508.745289 
L 940.554 508.773174 
L 940.833 508.559706 
L 941.205 507.906031 
L 941.67 506.538784 
L 942.321 503.818173 
L 944.367 494.648823 
L 945.018 492.848078 
L 945.576 491.841598 
L 946.134 491.257682 
L 946.692 490.993644 
L 947.343 490.960811 
L 947.994 491.174455 
L 948.645 491.630195 
L 949.296 492.34935 
L 949.947 493.37861 
L 950.691 495.007746 
L 951.435 497.204083 
L 952.272 500.404361 
L 953.388 505.698994 
L 955.155 514.088126 
L 955.899 516.58192 
L 956.55 518.004063 
L 957.015 518.589258 
L 957.48 518.858334 
L 957.945 518.87619 
L 958.596 518.630265 
L 961.2 517.120082 
L 961.851 516.481947 
L 962.502 515.533208 
L 963.246 514.014019 
L 964.083 511.728708 
L 964.92 508.695428 
L 965.85 504.347524 
L 967.152 496.96177 
L 968.826 487.659113 
L 969.942 482.690191 
L 970.965 479.067672 
L 971.895 476.526304 
L 972.732 474.850597 
L 973.383 473.998174 
L 973.941 473.607688 
L 974.406 473.554977 
L 974.778 473.71598 
L 975.243 474.190626 
L 975.801 475.17159 
L 976.452 476.847139 
L 977.289 479.691687 
L 980.079 489.94637 
L 980.73 491.403109 
L 981.195 492.047393 
L 981.66 492.320706 
L 982.032 492.279228 
L 982.404 492.014964 
L 982.869 491.382129 
L 983.427 490.179468 
L 984.078 488.156159 
L 984.822 484.984849 
L 985.566 480.716859 
L 986.31 475.093157 
L 987.147 466.894491 
L 988.077 455.445721 
L 989.1 439.823226 
L 990.309 417.594178 
L 994.587 335.523477 
L 995.982 314.224423 
L 996.819 304.610666 
L 997.47 299.474964 
L 998.121 296.037382 
L 998.772 293.763348 
L 999.237 292.79471 
L 999.609 292.496888 
L 999.888 292.570769 
L 1000.167 292.886995 
L 1000.632 293.862468 
L 1001.376 296.150697 
L 1002.399 300.039144 
L 1003.236 304.076584 
L 1004.073 309.34999 
L 1005.096 317.434804 
L 1008.537 348.070264 
L 1009.467 358.802324 
L 1010.955 379.556863 
L 1012.257 396.280471 
L 1013.28 406.703179 
L 1014.21 414.001179 
L 1015.047 418.791676 
L 1015.698 421.412037 
L 1016.349 423.171246 
L 1016.907 424.106002 
L 1017.372 424.506617 
L 1017.744 424.552508 
L 1018.116 424.309499 
L 1018.488 423.718669 
L 1018.953 422.419587 
L 1019.511 420.041838 
L 1020.255 415.67189 
L 1021.371 407.477763 
L 1023.789 389.275148 
L 1027.416 363.902589 
L 1029.276 350.64529 
L 1030.206 345.254011 
L 1030.764 343.150569 
L 1031.136 342.370233 
L 1031.508 342.075517 
L 1031.787 342.13812 
L 1032.159 342.543698 
L 1032.624 343.46852 
L 1033.275 345.323736 
L 1034.205 348.776053 
L 1035.228 353.500141 
L 1036.065 358.483171 
L 1036.809 364.373356 
L 1037.553 372.057742 
L 1038.483 384.125155 
L 1039.878 405.555268 
L 1042.203 441.148857 
L 1043.691 460.378189 
L 1044.807 472.317175 
L 1045.737 480.201744 
L 1046.481 485.004294 
L 1047.039 487.471918 
L 1047.504 488.605308 
L 1047.783 488.843828 
L 1047.969 488.814497 
L 1048.248 488.489239 
L 1048.62 487.545555 
L 1049.085 485.603928 
L 1049.736 481.658493 
L 1050.573 474.991913 
L 1052.061 460.916455 
L 1057.641 406.775389 
L 1058.664 399.466602 
L 1059.501 395.072585 
L 1060.152 392.671714 
L 1060.803 391.062871 
L 1061.361 390.192344 
L 1061.919 389.673819 
L 1062.57 389.38069 
L 1063.593 389.237197 
L 1064.523 389.014849 
L 1066.569 388.351428 
L 1066.941 388.546716 
L 1067.313 388.993948 
L 1067.778 389.995281 
L 1068.243 391.585145 
L 1068.801 394.374667 
L 1069.452 398.910524 
L 1070.289 406.561076 
L 1071.498 419.950264 
L 1078.194 497.244929 
L 1079.217 506.630928 
L 1079.961 511.681315 
L 1080.612 514.794499 
L 1081.263 516.906548 
L 1081.914 518.322306 
L 1082.658 519.396302 
L 1083.495 520.201637 
L 1084.797 521.083307 
L 1086.843 522.448253 
L 1089.168 524.033414 
L 1090.098 524.390427 
L 1090.842 524.446666 
L 1091.586 524.282916 
L 1092.516 523.84074 
L 1095.306 522.126308 
L 1097.352 520.956518 
L 1098.654 520.445326 
L 1099.77 520.249636 
L 1100.7 520.296586 
L 1101.816 520.587131 
L 1104.699 521.476113 
L 1105.536 521.387758 
L 1106.28 521.095447 
L 1107.024 520.537215 
L 1107.768 519.668231 
L 1108.14 519.00314 
L 1108.977 516.285021 
L 1110.558 510.166054 
L 1113.255 498.800348 
L 1115.766 487.305289 
L 1117.347 479.470719 
L 1117.347 479.470719 
" style="fill:none;stroke:#0000ff;stroke-linecap:square;"/>
   </g>
   <g id="line2d_2">
    <path clip-path="url(#p0233aef954)" d="M 180 592.502478 
L 190.044 176.816289 
L 191.439 129.269901 
L 192.369 104.303877 
L 193.113 89.713124 
L 193.671 82.656413 
L 194.043 80.01521 
L 194.322 79.119156 
L 194.508 79.011749 
L 194.694 79.267318 
L 194.973 80.24488 
L 195.438 83.041814 
L 196.461 91.330204 
L 198.414 106.521964 
L 199.344 114.747284 
L 200.088 123.587324 
L 200.832 135.149111 
L 201.855 155.011398 
L 203.25 187.178117 
L 207.807 302.418403 
L 211.062 387.812006 
L 212.55 425.287902 
L 213.666 447.995915 
L 214.782 466.106027 
L 215.898 480.535357 
L 217.014 492.251214 
L 218.037 500.87213 
L 218.967 507.013588 
L 219.711 510.621203 
L 220.362 512.80618 
L 220.92 514.043996 
L 221.478 514.809418 
L 222.036 515.235534 
L 222.78 515.509519 
L 224.268 515.77257 
L 225.756 515.836566 
L 226.779 515.651941 
L 227.709 515.239254 
L 228.825 514.487219 
L 231.15 512.788469 
L 231.987 512.519822 
L 232.824 512.507489 
L 234.033 512.745651 
L 235.428 513.22865 
L 237.009 514.046171 
L 239.148 515.09633 
L 242.31 516.468234 
L 243.24 516.509385 
L 244.077 516.320889 
L 244.821 515.959328 
L 245.379 515.469359 
L 245.937 514.660492 
L 246.495 513.451952 
L 247.053 511.754816 
L 247.704 508.997689 
L 248.355 505.265246 
L 249.192 498.968595 
L 250.215 489.317979 
L 252.726 462.386973 
L 258.492 402.137922 
L 259.422 395.161986 
L 260.352 389.8658 
L 262.026 382.094283 
L 264.816 368.657056 
L 267.141 357.673124 
L 268.629 351.578326 
L 269.466 348.927349 
L 269.931 348.013567 
L 270.303 347.729794 
L 270.582 347.843796 
L 270.861 348.284639 
L 271.233 349.445334 
L 271.698 351.900075 
L 272.256 356.311955 
L 273 364.375241 
L 274.116 379.530128 
L 276.069 409.421457 
L 280.719 481.910715 
L 281.742 494.655357 
L 282.486 501.647943 
L 283.137 505.991538 
L 283.695 508.486408 
L 284.253 510.031279 
L 284.718 510.737124 
L 285.183 511.038254 
L 285.648 511.04972 
L 286.206 510.788135 
L 286.857 510.189687 
L 287.601 509.184909 
L 288.345 507.825955 
L 289.089 505.969817 
L 289.833 503.4221 
L 290.577 500.045069 
L 291.6 494.183388 
L 292.995 486.302808 
L 293.739 483.417247 
L 294.297 482.029191 
L 294.855 481.225139 
L 295.32 480.916155 
L 295.785 480.858551 
L 296.343 481.027782 
L 297.087 481.520635 
L 297.924 482.341839 
L 298.761 483.483779 
L 299.505 484.90053 
L 300.156 486.652825 
L 300.807 489.031602 
L 301.644 493.023031 
L 303.132 501.622053 
L 304.248 507.446436 
L 304.992 510.253625 
L 305.55 511.623703 
L 306.015 512.286767 
L 306.48 512.561926 
L 306.852 512.534842 
L 307.224 512.298394 
L 307.689 511.712165 
L 308.247 510.603433 
L 308.898 508.74354 
L 309.549 506.122892 
L 310.2 502.470934 
L 310.851 497.502417 
L 311.595 489.819441 
L 312.339 479.726947 
L 313.269 463.823819 
L 314.571 437.092669 
L 321.546 286.248764 
L 322.569 268.261665 
L 323.406 257.329214 
L 324.057 251.306617 
L 324.708 247.219513 
L 325.266 245.015217 
L 325.731 243.981736 
L 326.01 243.728069 
L 326.289 243.772659 
L 326.568 244.146486 
L 326.847 244.903723 
L 327.219 246.641263 
L 327.684 250.221778 
L 328.242 256.665001 
L 329.079 269.46356 
L 330.474 290.636064 
L 331.59 304.049154 
L 333.543 326.753972 
L 334.659 343.33649 
L 339.402 418.095081 
L 341.355 444.276956 
L 344.889 487.63711 
L 346.098 500.409424 
L 346.935 507.127341 
L 347.586 510.874586 
L 348.144 513.065086 
L 348.702 514.442828 
L 349.26 515.221363 
L 349.911 515.697274 
L 351.027 516.158196 
L 352.608 516.588818 
L 353.631 516.660026 
L 354.561 516.514439 
L 355.491 516.141611 
L 358.746 514.60269 
L 360.234 514.218848 
L 361.815 514.048615 
L 369.534 513.515319 
L 370.929 512.927781 
L 372.138 512.47913 
L 372.975 512.385255 
L 373.905 512.511703 
L 375.951 513.122 
L 378.927 514.118387 
L 379.95 514.434108 
L 380.508 514.378036 
L 380.973 514.119153 
L 381.438 513.600252 
L 381.903 512.739273 
L 382.461 511.130284 
L 383.019 508.783881 
L 383.67 505.057341 
L 384.507 498.78266 
L 385.53 489.253175 
L 386.925 473.936736 
L 388.599 452.942064 
L 390.459 426.603034 
L 392.691 395.353754 
L 393.993 380.218146 
L 395.016 370.549816 
L 395.946 363.806053 
L 396.876 358.77684 
L 397.806 354.970408 
L 398.643 352.368217 
L 399.387 350.738311 
L 399.945 350.039662 
L 400.317 349.870789 
L 400.689 349.96357 
L 401.061 350.341731 
L 401.433 351.0384 
L 401.898 352.414153 
L 402.456 354.864052 
L 403.107 358.890922 
L 403.851 365.103215 
L 404.781 375.116414 
L 405.897 389.819516 
L 407.385 412.833828 
L 410.268 458.056567 
L 412.128 483.48289 
L 413.43 498.444576 
L 414.36 506.875201 
L 415.104 511.928881 
L 415.755 515.053859 
L 416.313 516.846094 
L 416.871 517.965018 
L 417.429 518.607791 
L 418.08 519.017338 
L 418.917 519.29523 
L 419.754 519.349651 
L 420.591 519.181424 
L 421.614 518.732242 
L 424.962 516.800645 
L 427.101 515.69499 
L 428.31 515.333302 
L 429.519 515.211403 
L 435.75 515.237773 
L 437.796 515.354604 
L 438.819 515.193214 
L 439.563 514.867691 
L 440.121 514.373025 
L 440.679 513.560807 
L 441.33 512.167458 
L 441.981 510.23731 
L 442.632 507.607855 
L 443.283 504.060531 
L 444.027 498.586401 
L 444.864 490.487536 
L 446.166 475.116294 
L 450.072 425.396721 
L 451.839 399.456167 
L 454.071 366.667334 
L 455.094 354.91307 
L 455.838 348.634016 
L 456.489 344.827217 
L 457.047 342.73332 
L 457.512 341.701205 
L 457.977 341.208913 
L 458.349 341.128014 
L 458.721 341.258872 
L 459.279 341.745427 
L 459.837 342.527051 
L 460.488 343.858761 
L 461.046 345.485071 
L 461.604 347.739133 
L 462.255 351.360044 
L 462.999 356.910577 
L 463.836 364.876891 
L 465.045 378.805595 
L 466.719 397.778958 
L 467.556 404.830109 
L 468.3 409.390453 
L 469.137 413.168224 
L 470.904 420.636452 
L 471.834 425.943962 
L 472.95 433.824937 
L 475.833 454.906012 
L 477.507 467.109625 
L 478.902 479.343127 
L 480.948 497.337549 
L 481.878 503.512947 
L 482.622 507.054482 
L 483.273 509.171189 
L 483.831 510.325655 
L 484.296 510.872188 
L 484.761 511.08001 
L 485.133 511.024269 
L 485.598 510.68561 
L 486.063 510.027527 
L 486.528 508.999746 
L 487.086 507.169292 
L 487.644 504.536086 
L 488.295 500.26459 
L 489.039 493.668714 
L 489.876 484.119486 
L 490.992 468.43309 
L 492.387 445.322888 
L 494.526 405.423964 
L 496.479 370.347128 
L 497.595 354.240051 
L 498.432 345.085 
L 498.99 340.945806 
L 499.455 338.878148 
L 499.827 338.107331 
L 500.106 338.019656 
L 500.292 338.188106 
L 500.571 338.770343 
L 500.943 340.130839 
L 501.408 342.682947 
L 502.059 347.600931 
L 503.082 357.440782 
L 505.407 380.585321 
L 506.523 389.21733 
L 507.546 395.557193 
L 508.29 399.004076 
L 508.941 401.044121 
L 509.406 401.862208 
L 509.778 402.096407 
L 510.057 402.002454 
L 510.336 401.659867 
L 510.708 400.794211 
L 511.173 399.044594 
L 511.824 395.526306 
L 513.126 386.732159 
L 514.335 379.215841 
L 515.172 375.249425 
L 515.823 373.055538 
L 516.381 371.85322 
L 516.846 371.301673 
L 517.311 371.095101 
L 517.776 371.176659 
L 518.241 371.504947 
L 518.892 372.283888 
L 519.729 373.694405 
L 521.496 376.828498 
L 522.147 377.55049 
L 522.612 377.79003 
L 522.984 377.778396 
L 523.356 377.56159 
L 523.728 377.111289 
L 524.193 376.178984 
L 524.751 374.490671 
L 525.402 371.71043 
L 526.239 366.924754 
L 527.541 357.794963 
L 530.145 339.124181 
L 530.889 335.469381 
L 531.633 332.917564 
L 532.284 331.481167 
L 532.842 330.745232 
L 533.307 330.431058 
L 533.772 330.3731 
L 534.237 330.572944 
L 534.702 331.059213 
L 535.167 331.886907 
L 535.725 333.392901 
L 536.376 335.906352 
L 537.12 339.842146 
L 537.957 345.676924 
L 538.794 353.143728 
L 539.724 363.447979 
L 540.933 379.579258 
L 542.979 410.508039 
L 545.118 441.608756 
L 547.35 470.178975 
L 549.024 489.16823 
L 550.14 499.358835 
L 550.977 505.197273 
L 551.721 508.924994 
L 552.279 510.772858 
L 552.837 511.922394 
L 553.395 512.544575 
L 553.953 512.837245 
L 554.697 512.970481 
L 559.626 513.384491 
L 563.904 514.424818 
L 566.136 514.685582 
L 569.112 514.78553 
L 572.274 515.109802 
L 573.297 514.947224 
L 574.32 514.548402 
L 576.459 513.427103 
L 577.017 512.873609 
L 577.575 512.006164 
L 578.226 510.50281 
L 578.877 508.400998 
L 579.621 505.197509 
L 580.365 500.986621 
L 581.202 494.958404 
L 582.132 486.645635 
L 583.155 475.525025 
L 584.085 463.084403 
L 585.759 436.39887 
L 587.433 412.074052 
L 589.386 383.211322 
L 592.827 331.234334 
L 594.036 316.770669 
L 594.966 307.900754 
L 595.71 302.814687 
L 596.268 300.326519 
L 596.733 299.079693 
L 597.105 298.58036 
L 597.384 298.465112 
L 597.663 298.540397 
L 598.035 298.877887 
L 598.593 299.718529 
L 599.616 301.760113 
L 600.546 304.036511 
L 601.104 306.051841 
L 601.662 309.033769 
L 602.22 313.312107 
L 602.871 320.03964 
L 603.708 331.135341 
L 604.731 347.807351 
L 606.591 382.65727 
L 608.73 421.727251 
L 610.218 445.025668 
L 611.892 467.670152 
L 613.287 483.800374 
L 614.496 495.22709 
L 615.519 502.843451 
L 616.449 508.186854 
L 617.193 511.354992 
L 617.937 513.572314 
L 618.588 514.849313 
L 619.239 515.632356 
L 619.89 516.040064 
L 620.634 516.22747 
L 621.657 516.234676 
L 622.866 515.997489 
L 625.935 515.218405 
L 627.237 515.273284 
L 629.655 515.64374 
L 631.236 515.831889 
L 633.747 515.978852 
L 635.421 516.47291 
L 636.723 516.712218 
L 638.118 516.735027 
L 639.42 516.500123 
L 642.303 515.877771 
L 644.07 515.764396 
L 645.651 515.666728 
L 646.302 515.360516 
L 646.86 514.839632 
L 647.511 513.877548 
L 648.162 512.450723 
L 648.813 510.402591 
L 649.464 507.564174 
L 650.208 503.232349 
L 651.138 496.264001 
L 652.533 483.693834 
L 654.114 469.856164 
L 655.137 462.740192 
L 656.067 457.698088 
L 656.997 453.837976 
L 658.02 450.520255 
L 658.857 448.502547 
L 659.415 447.649329 
L 659.88 447.316171 
L 660.252 447.33367 
L 660.624 447.618666 
L 661.089 448.322498 
L 662.019 450.34555 
L 662.577 451.319198 
L 662.949 451.549721 
L 663.228 451.405967 
L 663.507 450.946981 
L 663.879 449.820457 
L 664.344 447.630421 
L 664.995 443.398558 
L 667.041 429.120037 
L 668.25 423.052933 
L 671.784 406.61937 
L 672.342 405.150857 
L 672.714 404.760819 
L 672.9 404.791072 
L 673.179 405.159185 
L 673.458 405.94167 
L 673.83 407.649028 
L 674.388 411.563355 
L 675.132 418.83363 
L 676.341 433.512963 
L 679.038 466.873537 
L 680.433 481.351809 
L 681.735 492.539965 
L 682.944 501.210655 
L 683.967 507.089086 
L 684.804 510.778737 
L 685.548 513.141529 
L 686.106 514.305482 
L 686.664 514.977628 
L 687.129 515.212427 
L 687.594 515.183859 
L 688.059 514.9046 
L 688.617 514.240441 
L 689.175 513.199769 
L 689.733 511.697697 
L 690.384 509.267328 
L 691.128 505.584414 
L 692.337 498.23123 
L 693.546 491.275273 
L 694.29 488.131451 
L 694.941 486.263939 
L 695.499 485.238839 
L 696.057 484.638834 
L 696.615 484.377752 
L 697.173 484.37993 
L 697.824 484.62942 
L 698.568 485.153179 
L 699.312 485.93822 
L 699.963 486.910675 
L 700.614 488.290908 
L 701.265 490.24596 
L 702.009 493.26813 
L 703.032 498.504842 
L 704.706 507.083793 
L 705.357 509.350706 
L 705.822 510.368635 
L 706.194 510.806441 
L 706.566 510.917248 
L 706.938 510.717469 
L 707.31 510.236592 
L 707.775 509.276398 
L 708.333 507.615186 
L 708.984 504.943518 
L 709.728 500.796641 
L 710.472 495.346374 
L 711.402 486.749821 
L 712.797 471.428706 
L 717.447 416.476806 
L 720.609 378.569156 
L 721.818 367.082976 
L 722.841 359.451278 
L 723.771 354.082845 
L 724.794 349.416247 
L 725.91 345.297355 
L 726.747 342.987035 
L 727.398 341.797662 
L 727.863 341.320418 
L 728.235 341.199615 
L 728.607 341.354423 
L 728.979 341.833501 
L 729.351 342.681488 
L 729.816 344.318055 
L 730.374 347.203015 
L 731.025 351.88615 
L 731.862 359.870735 
L 732.978 373.069579 
L 734.652 395.889002 
L 739.488 463.879582 
L 740.883 479.845753 
L 741.999 490.223394 
L 742.929 496.948317 
L 743.766 501.4124 
L 744.51 504.27153 
L 745.347 506.578409 
L 746.184 508.242189 
L 747.114 509.598539 
L 748.044 510.56826 
L 748.974 511.198389 
L 753.345 513.604545 
L 757.623 516.158125 
L 758.832 516.621214 
L 760.134 516.879874 
L 763.203 517.122948 
L 764.226 516.97677 
L 765.249 516.593734 
L 766.365 515.935493 
L 768.597 514.267644 
L 772.782 510.837959 
L 773.526 509.815401 
L 774.084 508.66953 
L 774.642 507.007795 
L 775.293 504.240186 
L 776.037 499.900244 
L 776.967 492.869448 
L 778.176 481.824977 
L 780.315 459.871357 
L 784.686 414.679663 
L 785.895 404.25003 
L 786.732 398.624312 
L 787.476 394.975622 
L 788.127 392.783384 
L 788.778 391.37419 
L 789.336 390.64877 
L 789.894 390.245656 
L 790.545 390.040076 
L 791.382 390.022679 
L 793.428 390.30891 
L 794.73 390.356367 
L 795.66 390.198595 
L 796.497 389.833756 
L 797.241 389.269596 
L 797.985 388.427612 
L 798.729 387.25975 
L 800.961 383.418379 
L 801.333 383.315919 
L 801.705 383.493066 
L 802.077 383.955957 
L 802.542 384.946006 
L 803.1 386.762267 
L 803.751 389.755845 
L 804.495 394.292856 
L 805.425 401.419503 
L 806.727 413.361246 
L 808.401 430.897938 
L 809.982 449.64186 
L 812.958 485.870215 
L 813.981 495.193198 
L 814.911 501.763243 
L 815.748 506.198409 
L 816.492 508.996495 
L 817.143 510.647325 
L 817.794 511.704346 
L 818.445 512.33422 
L 819.189 512.734967 
L 822.63 514.211938 
L 824.676 515.082566 
L 826.443 515.486527 
L 827.931 515.667024 
L 828.954 515.559249 
L 829.977 515.208541 
L 831.093 514.576664 
L 833.79 512.653533 
L 834.906 511.588284 
L 835.743 510.496108 
L 836.487 509.133785 
L 837.231 507.296604 
L 837.975 504.796348 
L 838.719 501.345282 
L 839.463 496.704546 
L 840.3 489.943941 
L 841.323 479.711469 
L 842.718 463.222431 
L 844.206 442.974163 
L 845.787 418.252056 
L 849.042 362.419379 
L 850.995 326.225235 
L 852.855 287.343567 
L 855.738 221.345544 
L 858.621 158.027031 
L 860.109 129.386454 
L 861.132 113.718886 
L 861.969 104.119414 
L 862.62 98.98303 
L 863.085 96.702174 
L 863.457 95.781573 
L 863.736 95.639105 
L 863.922 95.803551 
L 864.201 96.420906 
L 864.573 97.866204 
L 865.131 101.080237 
L 866.061 108.050651 
L 867.642 121.650346 
L 869.316 137.945053 
L 873.594 181.979876 
L 876.57 207.809592 
L 877.779 221.816249 
L 879.918 246.710192 
L 882.987 280.958948 
L 885.777 312.315234 
L 887.916 333.396114 
L 889.218 347.132508 
L 890.241 360.423788 
L 891.543 380.512619 
L 894.705 430.494737 
L 896.286 451.383826 
L 897.588 466.080495 
L 898.425 473.491384 
L 899.076 477.485967 
L 899.541 479.092841 
L 899.82 479.49851 
L 900.006 479.529371 
L 900.192 479.367812 
L 900.471 478.770312 
L 900.843 477.343269 
L 901.401 474.010149 
L 902.145 467.875099 
L 906.237 430.820839 
L 910.98 394.699634 
L 911.817 390.63514 
L 912.468 388.467322 
L 913.119 387.053175 
L 914.049 385.694468 
L 916.188 382.939979 
L 916.746 382.639609 
L 917.211 382.676579 
L 917.676 383.006041 
L 918.141 383.628433 
L 918.699 384.741267 
L 919.35 386.529334 
L 920.094 389.27395 
L 920.931 393.29756 
L 922.512 402.383328 
L 923.628 408.205035 
L 924.279 410.657026 
L 924.744 411.705626 
L 925.116 412.03428 
L 925.395 411.973706 
L 925.674 411.655498 
L 926.046 410.855599 
L 926.604 409.005689 
L 928.185 403.282863 
L 928.65 402.544557 
L 928.929 402.409192 
L 929.208 402.490138 
L 929.58 402.879918 
L 930.045 403.71932 
L 930.789 405.625703 
L 931.719 408.695189 
L 933.021 413.830285 
L 934.137 419.008536 
L 934.974 423.995436 
L 935.718 429.896835 
L 936.555 438.49787 
L 939.345 469.271438 
L 939.996 473.443956 
L 940.461 475.329064 
L 940.833 476.180049 
L 941.112 476.461264 
L 941.391 476.470488 
L 941.67 476.247559 
L 942.135 475.485411 
L 943.065 473.293482 
L 944.088 471.078353 
L 944.739 470.117192 
L 945.297 469.68879 
L 945.762 469.623932 
L 946.227 469.798907 
L 946.785 470.263458 
L 947.622 471.282082 
L 948.552 472.743255 
L 949.482 474.650039 
L 950.226 476.64983 
L 950.97 479.308975 
L 951.807 483.219753 
L 952.923 489.640826 
L 954.969 501.605536 
L 955.899 505.778651 
L 956.643 508.211787 
L 957.294 509.676266 
L 957.945 510.617605 
L 958.596 511.19307 
L 959.619 511.770205 
L 962.781 513.443905 
L 964.176 514.094383 
L 965.571 514.496012 
L 966.594 514.598683 
L 967.431 514.447152 
L 968.454 514.005107 
L 970.035 513.029518 
L 971.244 512.044471 
L 972.174 511.013219 
L 973.011 509.748105 
L 973.755 508.213789 
L 974.499 506.109483 
L 975.243 503.318366 
L 976.173 498.848603 
L 978.405 487.637013 
L 979.242 484.70006 
L 979.986 482.860266 
L 980.73 481.60633 
L 981.567 480.61097 
L 983.985 478.069624 
L 985.659 476.058176 
L 986.31 475.613972 
L 986.868 475.472671 
L 987.426 475.575103 
L 987.984 475.935985 
L 988.635 476.67071 
L 989.658 478.247414 
L 990.681 479.697705 
L 991.332 480.278312 
L 991.983 480.58577 
L 994.029 481.272462 
L 994.587 481.872283 
L 995.238 482.913406 
L 995.982 484.562451 
L 996.912 487.255671 
L 998.214 491.074478 
L 998.772 492.06454 
L 999.144 492.295696 
L 999.423 492.173346 
L 999.702 491.760399 
L 1000.074 490.724966 
L 1000.539 488.633709 
L 1001.097 485.014672 
L 1001.934 477.802306 
L 1003.329 463.377103 
L 1005.561 437.992337 
L 1010.211 383.547162 
L 1010.955 378.012579 
L 1011.513 375.175706 
L 1012.071 373.443731 
L 1012.536 372.718852 
L 1012.908 372.501235 
L 1013.28 372.513403 
L 1013.931 372.818374 
L 1014.675 373.102996 
L 1015.233 373.05396 
L 1015.791 372.750547 
L 1016.535 372.056554 
L 1018.674 369.894223 
L 1019.604 368.99403 
L 1020.255 368.010815 
L 1021.092 366.267981 
L 1023.231 361.111002 
L 1024.347 357.709269 
L 1026.672 350.402409 
L 1027.881 347.384268 
L 1028.811 345.628718 
L 1029.741 344.32501 
L 1033.089 340.043694 
L 1034.112 338.19732 
L 1035.414 335.304476 
L 1036.902 332.038573 
L 1037.553 331.080964 
L 1037.925 330.826257 
L 1038.204 330.846762 
L 1038.483 331.095312 
L 1038.855 331.851415 
L 1039.227 333.171727 
L 1039.692 335.699604 
L 1040.25 340.029591 
L 1041.087 348.673936 
L 1044.249 383.797201 
L 1048.434 420.804624 
L 1048.899 422.668815 
L 1049.271 423.317979 
L 1049.457 423.376442 
L 1049.643 423.266923 
L 1049.922 422.803919 
L 1050.294 421.66953 
L 1050.852 419.061258 
L 1051.689 413.8257 
L 1054.944 391.982672 
L 1055.874 387.806897 
L 1056.804 384.614285 
L 1057.455 383.030949 
L 1058.013 382.174368 
L 1058.478 381.863594 
L 1058.85 381.917763 
L 1059.222 382.277274 
L 1059.594 382.972995 
L 1060.059 384.336316 
L 1060.71 387.097865 
L 1061.733 392.72587 
L 1063.221 400.891659 
L 1063.872 403.36552 
L 1064.43 404.633824 
L 1064.802 405.034264 
L 1065.174 405.095061 
L 1065.546 404.842098 
L 1066.011 404.143726 
L 1066.662 402.649809 
L 1068.243 398.791694 
L 1068.708 398.205708 
L 1069.08 398.037385 
L 1069.359 398.106272 
L 1069.731 398.473723 
L 1070.196 399.382567 
L 1070.754 401.139397 
L 1071.405 404.092337 
L 1072.242 409.086357 
L 1073.451 417.775848 
L 1075.032 430.777492 
L 1076.241 442.650005 
L 1077.822 460.611002 
L 1080.891 496.023249 
L 1081.728 502.730568 
L 1082.472 506.980389 
L 1083.123 509.52265 
L 1083.774 511.246709 
L 1084.518 512.58201 
L 1085.541 513.887004 
L 1086.936 515.293392 
L 1089.447 517.403733 
L 1090.656 518.143489 
L 1091.586 518.465525 
L 1092.609 518.575225 
L 1095.492 518.735622 
L 1097.724 519.104311 
L 1099.212 519.030951 
L 1104.234 518.734771 
L 1105.443 518.660289 
L 1106.28 518.373521 
L 1107.117 517.825992 
L 1108.233 516.799536 
L 1109.442 515.661155 
L 1111.395 514.186429 
L 1115.022 511.452125 
L 1117.347 509.535827 
L 1117.347 509.535827 
" style="fill:none;stroke:#008000;stroke-linecap:square;"/>
   </g>
   <g id="patch_3">
    <path d="M 180 630 
L 180 72 
" style="fill:none;stroke:#000000;stroke-linecap:square;stroke-linejoin:miter;"/>
   </g>
   <g id="patch_4">
    <path d="M 180 72 
L 1296 72 
" style="fill:none;stroke:#000000;stroke-linecap:square;stroke-linejoin:miter;"/>
   </g>
   <g id="patch_5">
    <path d="M 1296 630 
L 1296 72 
" style="fill:none;stroke:#000000;stroke-linecap:square;stroke-linejoin:miter;"/>
   </g>
   <g id="patch_6">
    <path d="M 180 630 
L 1296 630 
" style="fill:none;stroke:#000000;stroke-linecap:square;stroke-linejoin:miter;"/>
   </g>
   <g id="matplotlib.axis_1">
    <g id="xtick_1">
     <g id="line2d_3">
      <defs>
       <path d="M 0 0 
L 0 -4 
" id="md3abc6264c" style="stroke:#000000;stroke-width:0.5;"/>
      </defs>
      <g>
       <use style="stroke:#000000;stroke-width:0.5;" x="180.0" xlink:href="#md3abc6264c" y="630.0"/>
      </g>
     </g>
     <g id="line2d_4">
      <defs>
       <path d="M 0 0 
L 0 4 
" id="m8e9fc11d1f" style="stroke:#000000;stroke-width:0.5;"/>
      </defs>
      <g>
       <use style="stroke:#000000;stroke-width:0.5;" x="180.0" xlink:href="#m8e9fc11d1f" y="72.0"/>
      </g>
     </g>
     <g id="text_1">
      <!-- 0 -->
      <defs>
       <path d="M 31.78125 66.40625 
Q 24.171875 66.40625 20.328125 58.90625 
Q 16.5 51.421875 16.5 36.375 
Q 16.5 21.390625 20.328125 13.890625 
Q 24.171875 6.390625 31.78125 6.390625 
Q 39.453125 6.390625 43.28125 13.890625 
Q 47.125 21.390625 47.125 36.375 
Q 47.125 51.421875 43.28125 58.90625 
Q 39.453125 66.40625 31.78125 66.40625 
M 31.78125 74.21875 
Q 44.046875 74.21875 50.515625 64.515625 
Q 56.984375 54.828125 56.984375 36.375 
Q 56.984375 17.96875 50.515625 8.265625 
Q 44.046875 -1.421875 31.78125 -1.421875 
Q 19.53125 -1.421875 13.0625 8.265625 
Q 6.59375 17.96875 6.59375 36.375 
Q 6.59375 54.828125 13.0625 64.515625 
Q 19.53125 74.21875 31.78125 74.21875 
" id="BitstreamVeraSans-Roman-30"/>
      </defs>
      <g transform="translate(176.81875 641.5984375)scale(0.1 -0.1)">
       <use xlink:href="#BitstreamVeraSans-Roman-30"/>
      </g>
     </g>
    </g>
    <g id="xtick_2">
     <g id="line2d_5">
      <g>
       <use style="stroke:#000000;stroke-width:0.5;" x="366.0" xlink:href="#md3abc6264c" y="630.0"/>
      </g>
     </g>
     <g id="line2d_6">
      <g>
       <use style="stroke:#000000;stroke-width:0.5;" x="366.0" xlink:href="#m8e9fc11d1f" y="72.0"/>
      </g>
     </g>
     <g id="text_2">
      <!-- 2000 -->
      <defs>
       <path d="M 19.1875 8.296875 
L 53.609375 8.296875 
L 53.609375 0 
L 7.328125 0 
L 7.328125 8.296875 
Q 12.9375 14.109375 22.625 23.890625 
Q 32.328125 33.6875 34.8125 36.53125 
Q 39.546875 41.84375 41.421875 45.53125 
Q 43.3125 49.21875 43.3125 52.78125 
Q 43.3125 58.59375 39.234375 62.25 
Q 35.15625 65.921875 28.609375 65.921875 
Q 23.96875 65.921875 18.8125 64.3125 
Q 13.671875 62.703125 7.8125 59.421875 
L 7.8125 69.390625 
Q 13.765625 71.78125 18.9375 73 
Q 24.125 74.21875 28.421875 74.21875 
Q 39.75 74.21875 46.484375 68.546875 
Q 53.21875 62.890625 53.21875 53.421875 
Q 53.21875 48.921875 51.53125 44.890625 
Q 49.859375 40.875 45.40625 35.40625 
Q 44.1875 33.984375 37.640625 27.21875 
Q 31.109375 20.453125 19.1875 8.296875 
" id="BitstreamVeraSans-Roman-32"/>
      </defs>
      <g transform="translate(353.275 641.5984375)scale(0.1 -0.1)">
       <use xlink:href="#BitstreamVeraSans-Roman-32"/>
       <use x="63.623046875" xlink:href="#BitstreamVeraSans-Roman-30"/>
       <use x="127.24609375" xlink:href="#BitstreamVeraSans-Roman-30"/>
       <use x="190.869140625" xlink:href="#BitstreamVeraSans-Roman-30"/>
      </g>
     </g>
    </g>
    <g id="xtick_3">
     <g id="line2d_7">
      <g>
       <use style="stroke:#000000;stroke-width:0.5;" x="552.0" xlink:href="#md3abc6264c" y="630.0"/>
      </g>
     </g>
     <g id="line2d_8">
      <g>
       <use style="stroke:#000000;stroke-width:0.5;" x="552.0" xlink:href="#m8e9fc11d1f" y="72.0"/>
      </g>
     </g>
     <g id="text_3">
      <!-- 4000 -->
      <defs>
       <path d="M 37.796875 64.3125 
L 12.890625 25.390625 
L 37.796875 25.390625 
z
M 35.203125 72.90625 
L 47.609375 72.90625 
L 47.609375 25.390625 
L 58.015625 25.390625 
L 58.015625 17.1875 
L 47.609375 17.1875 
L 47.609375 0 
L 37.796875 0 
L 37.796875 17.1875 
L 4.890625 17.1875 
L 4.890625 26.703125 
z
" id="BitstreamVeraSans-Roman-34"/>
      </defs>
      <g transform="translate(539.275 641.5984375)scale(0.1 -0.1)">
       <use xlink:href="#BitstreamVeraSans-Roman-34"/>
       <use x="63.623046875" xlink:href="#BitstreamVeraSans-Roman-30"/>
       <use x="127.24609375" xlink:href="#BitstreamVeraSans-Roman-30"/>
       <use x="190.869140625" xlink:href="#BitstreamVeraSans-Roman-30"/>
      </g>
     </g>
    </g>
    <g id="xtick_4">
     <g id="line2d_9">
      <g>
       <use style="stroke:#000000;stroke-width:0.5;" x="738.0" xlink:href="#md3abc6264c" y="630.0"/>
      </g>
     </g>
     <g id="line2d_10">
      <g>
       <use style="stroke:#000000;stroke-width:0.5;" x="738.0" xlink:href="#m8e9fc11d1f" y="72.0"/>
      </g>
     </g>
     <g id="text_4">
      <!-- 6000 -->
      <defs>
       <path d="M 33.015625 40.375 
Q 26.375 40.375 22.484375 35.828125 
Q 18.609375 31.296875 18.609375 23.390625 
Q 18.609375 15.53125 22.484375 10.953125 
Q 26.375 6.390625 33.015625 6.390625 
Q 39.65625 6.390625 43.53125 10.953125 
Q 47.40625 15.53125 47.40625 23.390625 
Q 47.40625 31.296875 43.53125 35.828125 
Q 39.65625 40.375 33.015625 40.375 
M 52.59375 71.296875 
L 52.59375 62.3125 
Q 48.875 64.0625 45.09375 64.984375 
Q 41.3125 65.921875 37.59375 65.921875 
Q 27.828125 65.921875 22.671875 59.328125 
Q 17.53125 52.734375 16.796875 39.40625 
Q 19.671875 43.65625 24.015625 45.921875 
Q 28.375 48.1875 33.59375 48.1875 
Q 44.578125 48.1875 50.953125 41.515625 
Q 57.328125 34.859375 57.328125 23.390625 
Q 57.328125 12.15625 50.6875 5.359375 
Q 44.046875 -1.421875 33.015625 -1.421875 
Q 20.359375 -1.421875 13.671875 8.265625 
Q 6.984375 17.96875 6.984375 36.375 
Q 6.984375 53.65625 15.1875 63.9375 
Q 23.390625 74.21875 37.203125 74.21875 
Q 40.921875 74.21875 44.703125 73.484375 
Q 48.484375 72.75 52.59375 71.296875 
" id="BitstreamVeraSans-Roman-36"/>
      </defs>
      <g transform="translate(725.275 641.5984375)scale(0.1 -0.1)">
       <use xlink:href="#BitstreamVeraSans-Roman-36"/>
       <use x="63.623046875" xlink:href="#BitstreamVeraSans-Roman-30"/>
       <use x="127.24609375" xlink:href="#BitstreamVeraSans-Roman-30"/>
       <use x="190.869140625" xlink:href="#BitstreamVeraSans-Roman-30"/>
      </g>
     </g>
    </g>
    <g id="xtick_5">
     <g id="line2d_11">
      <g>
       <use style="stroke:#000000;stroke-width:0.5;" x="924.0" xlink:href="#md3abc6264c" y="630.0"/>
      </g>
     </g>
     <g id="line2d_12">
      <g>
       <use style="stroke:#000000;stroke-width:0.5;" x="924.0" xlink:href="#m8e9fc11d1f" y="72.0"/>
      </g>
     </g>
     <g id="text_5">
      <!-- 8000 -->
      <defs>
       <path d="M 31.78125 34.625 
Q 24.75 34.625 20.71875 30.859375 
Q 16.703125 27.09375 16.703125 20.515625 
Q 16.703125 13.921875 20.71875 10.15625 
Q 24.75 6.390625 31.78125 6.390625 
Q 38.8125 6.390625 42.859375 10.171875 
Q 46.921875 13.96875 46.921875 20.515625 
Q 46.921875 27.09375 42.890625 30.859375 
Q 38.875 34.625 31.78125 34.625 
M 21.921875 38.8125 
Q 15.578125 40.375 12.03125 44.71875 
Q 8.5 49.078125 8.5 55.328125 
Q 8.5 64.0625 14.71875 69.140625 
Q 20.953125 74.21875 31.78125 74.21875 
Q 42.671875 74.21875 48.875 69.140625 
Q 55.078125 64.0625 55.078125 55.328125 
Q 55.078125 49.078125 51.53125 44.71875 
Q 48 40.375 41.703125 38.8125 
Q 48.828125 37.15625 52.796875 32.3125 
Q 56.78125 27.484375 56.78125 20.515625 
Q 56.78125 9.90625 50.3125 4.234375 
Q 43.84375 -1.421875 31.78125 -1.421875 
Q 19.734375 -1.421875 13.25 4.234375 
Q 6.78125 9.90625 6.78125 20.515625 
Q 6.78125 27.484375 10.78125 32.3125 
Q 14.796875 37.15625 21.921875 38.8125 
M 18.3125 54.390625 
Q 18.3125 48.734375 21.84375 45.5625 
Q 25.390625 42.390625 31.78125 42.390625 
Q 38.140625 42.390625 41.71875 45.5625 
Q 45.3125 48.734375 45.3125 54.390625 
Q 45.3125 60.0625 41.71875 63.234375 
Q 38.140625 66.40625 31.78125 66.40625 
Q 25.390625 66.40625 21.84375 63.234375 
Q 18.3125 60.0625 18.3125 54.390625 
" id="BitstreamVeraSans-Roman-38"/>
      </defs>
      <g transform="translate(911.275 641.5984375)scale(0.1 -0.1)">
       <use xlink:href="#BitstreamVeraSans-Roman-38"/>
       <use x="63.623046875" xlink:href="#BitstreamVeraSans-Roman-30"/>
       <use x="127.24609375" xlink:href="#BitstreamVeraSans-Roman-30"/>
       <use x="190.869140625" xlink:href="#BitstreamVeraSans-Roman-30"/>
      </g>
     </g>
    </g>
    <g id="xtick_6">
     <g id="line2d_13">
      <g>
       <use style="stroke:#000000;stroke-width:0.5;" x="1110.0" xlink:href="#md3abc6264c" y="630.0"/>
      </g>
     </g>
     <g id="line2d_14">
      <g>
       <use style="stroke:#000000;stroke-width:0.5;" x="1110.0" xlink:href="#m8e9fc11d1f" y="72.0"/>
      </g>
     </g>
     <g id="text_6">
      <!-- 10000 -->
      <defs>
       <path d="M 12.40625 8.296875 
L 28.515625 8.296875 
L 28.515625 63.921875 
L 10.984375 60.40625 
L 10.984375 69.390625 
L 28.421875 72.90625 
L 38.28125 72.90625 
L 38.28125 8.296875 
L 54.390625 8.296875 
L 54.390625 0 
L 12.40625 0 
z
" id="BitstreamVeraSans-Roman-31"/>
      </defs>
      <g transform="translate(1094.09375 641.5984375)scale(0.1 -0.1)">
       <use xlink:href="#BitstreamVeraSans-Roman-31"/>
       <use x="63.623046875" xlink:href="#BitstreamVeraSans-Roman-30"/>
       <use x="127.24609375" xlink:href="#BitstreamVeraSans-Roman-30"/>
       <use x="190.869140625" xlink:href="#BitstreamVeraSans-Roman-30"/>
       <use x="254.4921875" xlink:href="#BitstreamVeraSans-Roman-30"/>
      </g>
     </g>
    </g>
    <g id="xtick_7">
     <g id="line2d_15">
      <g>
       <use style="stroke:#000000;stroke-width:0.5;" x="1296.0" xlink:href="#md3abc6264c" y="630.0"/>
      </g>
     </g>
     <g id="line2d_16">
      <g>
       <use style="stroke:#000000;stroke-width:0.5;" x="1296.0" xlink:href="#m8e9fc11d1f" y="72.0"/>
      </g>
     </g>
     <g id="text_7">
      <!-- 12000 -->
      <g transform="translate(1280.09375 641.5984375)scale(0.1 -0.1)">
       <use xlink:href="#BitstreamVeraSans-Roman-31"/>
       <use x="63.623046875" xlink:href="#BitstreamVeraSans-Roman-32"/>
       <use x="127.24609375" xlink:href="#BitstreamVeraSans-Roman-30"/>
       <use x="190.869140625" xlink:href="#BitstreamVeraSans-Roman-30"/>
       <use x="254.4921875" xlink:href="#BitstreamVeraSans-Roman-30"/>
      </g>
     </g>
    </g>
   </g>
   <g id="matplotlib.axis_2">
    <g id="ytick_1">
     <g id="line2d_17">
      <defs>
       <path d="M 0 0 
L 4 0 
" id="m3ea1f363e2" style="stroke:#000000;stroke-width:0.5;"/>
      </defs>
      <g>
       <use style="stroke:#000000;stroke-width:0.5;" x="180.0" xlink:href="#m3ea1f363e2" y="630.0"/>
      </g>
     </g>
     <g id="line2d_18">
      <defs>
       <path d="M 0 0 
L -4 0 
" id="ma2aa509a79" style="stroke:#000000;stroke-width:0.5;"/>
      </defs>
      <g>
       <use style="stroke:#000000;stroke-width:0.5;" x="1296.0" xlink:href="#ma2aa509a79" y="630.0"/>
      </g>
     </g>
     <g id="text_8">
      <!-- 0.5 -->
      <defs>
       <path d="M 10.6875 12.40625 
L 21 12.40625 
L 21 0 
L 10.6875 0 
z
" id="BitstreamVeraSans-Roman-2e"/>
       <path d="M 10.59375 35.5 
L 73.1875 35.5 
L 73.1875 27.203125 
L 10.59375 27.203125 
z
" id="BitstreamVeraSans-Roman-2212"/>
       <path d="M 10.796875 72.90625 
L 49.515625 72.90625 
L 49.515625 64.59375 
L 19.828125 64.59375 
L 19.828125 46.734375 
Q 21.96875 47.46875 24.109375 47.828125 
Q 26.265625 48.1875 28.421875 48.1875 
Q 40.625 48.1875 47.75 41.5 
Q 54.890625 34.8125 54.890625 23.390625 
Q 54.890625 11.625 47.5625 5.09375 
Q 40.234375 -1.421875 26.90625 -1.421875 
Q 22.3125 -1.421875 17.546875 -0.640625 
Q 12.796875 0.140625 7.71875 1.703125 
L 7.71875 11.625 
Q 12.109375 9.234375 16.796875 8.0625 
Q 21.484375 6.890625 26.703125 6.890625 
Q 35.15625 6.890625 40.078125 11.328125 
Q 45.015625 15.765625 45.015625 23.390625 
Q 45.015625 31 40.078125 35.4375 
Q 35.15625 39.890625 26.703125 39.890625 
Q 22.75 39.890625 18.8125 39.015625 
Q 14.890625 38.140625 10.796875 36.28125 
z
" id="BitstreamVeraSans-Roman-35"/>
      </defs>
      <g transform="translate(151.7171875 632.759375)scale(0.1 -0.1)">
       <use xlink:href="#BitstreamVeraSans-Roman-2212"/>
       <use x="83.7890625" xlink:href="#BitstreamVeraSans-Roman-30"/>
       <use x="147.412109375" xlink:href="#BitstreamVeraSans-Roman-2e"/>
       <use x="179.19921875" xlink:href="#BitstreamVeraSans-Roman-35"/>
      </g>
     </g>
    </g>
    <g id="ytick_2">
     <g id="line2d_19">
      <g>
       <use style="stroke:#000000;stroke-width:0.5;" x="180.0" xlink:href="#m3ea1f363e2" y="568.0"/>
      </g>
     </g>
     <g id="line2d_20">
      <g>
       <use style="stroke:#000000;stroke-width:0.5;" x="1296.0" xlink:href="#ma2aa509a79" y="568.0"/>
      </g>
     </g>
     <g id="text_9">
      <!-- 0.0 -->
      <g transform="translate(160.096875 570.759375)scale(0.1 -0.1)">
       <use xlink:href="#BitstreamVeraSans-Roman-30"/>
       <use x="63.623046875" xlink:href="#BitstreamVeraSans-Roman-2e"/>
       <use x="95.41015625" xlink:href="#BitstreamVeraSans-Roman-30"/>
      </g>
     </g>
    </g>
    <g id="ytick_3">
     <g id="line2d_21">
      <g>
       <use style="stroke:#000000;stroke-width:0.5;" x="180.0" xlink:href="#m3ea1f363e2" y="506.0"/>
      </g>
     </g>
     <g id="line2d_22">
      <g>
       <use style="stroke:#000000;stroke-width:0.5;" x="1296.0" xlink:href="#ma2aa509a79" y="506.0"/>
      </g>
     </g>
     <g id="text_10">
      <!-- 0.5 -->
      <g transform="translate(160.096875 508.759375)scale(0.1 -0.1)">
       <use xlink:href="#BitstreamVeraSans-Roman-30"/>
       <use x="63.623046875" xlink:href="#BitstreamVeraSans-Roman-2e"/>
       <use x="95.41015625" xlink:href="#BitstreamVeraSans-Roman-35"/>
      </g>
     </g>
    </g>
    <g id="ytick_4">
     <g id="line2d_23">
      <g>
       <use style="stroke:#000000;stroke-width:0.5;" x="180.0" xlink:href="#m3ea1f363e2" y="444.0"/>
      </g>
     </g>
     <g id="line2d_24">
      <g>
       <use style="stroke:#000000;stroke-width:0.5;" x="1296.0" xlink:href="#ma2aa509a79" y="444.0"/>
      </g>
     </g>
     <g id="text_11">
      <!-- 1.0 -->
      <g transform="translate(160.096875 446.759375)scale(0.1 -0.1)">
       <use xlink:href="#BitstreamVeraSans-Roman-31"/>
       <use x="63.623046875" xlink:href="#BitstreamVeraSans-Roman-2e"/>
       <use x="95.41015625" xlink:href="#BitstreamVeraSans-Roman-30"/>
      </g>
     </g>
    </g>
    <g id="ytick_5">
     <g id="line2d_25">
      <g>
       <use style="stroke:#000000;stroke-width:0.5;" x="180.0" xlink:href="#m3ea1f363e2" y="382.0"/>
      </g>
     </g>
     <g id="line2d_26">
      <g>
       <use style="stroke:#000000;stroke-width:0.5;" x="1296.0" xlink:href="#ma2aa509a79" y="382.0"/>
      </g>
     </g>
     <g id="text_12">
      <!-- 1.5 -->
      <g transform="translate(160.096875 384.759375)scale(0.1 -0.1)">
       <use xlink:href="#BitstreamVeraSans-Roman-31"/>
       <use x="63.623046875" xlink:href="#BitstreamVeraSans-Roman-2e"/>
       <use x="95.41015625" xlink:href="#BitstreamVeraSans-Roman-35"/>
      </g>
     </g>
    </g>
    <g id="ytick_6">
     <g id="line2d_27">
      <g>
       <use style="stroke:#000000;stroke-width:0.5;" x="180.0" xlink:href="#m3ea1f363e2" y="320.0"/>
      </g>
     </g>
     <g id="line2d_28">
      <g>
       <use style="stroke:#000000;stroke-width:0.5;" x="1296.0" xlink:href="#ma2aa509a79" y="320.0"/>
      </g>
     </g>
     <g id="text_13">
      <!-- 2.0 -->
      <g transform="translate(160.096875 322.759375)scale(0.1 -0.1)">
       <use xlink:href="#BitstreamVeraSans-Roman-32"/>
       <use x="63.623046875" xlink:href="#BitstreamVeraSans-Roman-2e"/>
       <use x="95.41015625" xlink:href="#BitstreamVeraSans-Roman-30"/>
      </g>
     </g>
    </g>
    <g id="ytick_7">
     <g id="line2d_29">
      <g>
       <use style="stroke:#000000;stroke-width:0.5;" x="180.0" xlink:href="#m3ea1f363e2" y="258.0"/>
      </g>
     </g>
     <g id="line2d_30">
      <g>
       <use style="stroke:#000000;stroke-width:0.5;" x="1296.0" xlink:href="#ma2aa509a79" y="258.0"/>
      </g>
     </g>
     <g id="text_14">
      <!-- 2.5 -->
      <g transform="translate(160.096875 260.759375)scale(0.1 -0.1)">
       <use xlink:href="#BitstreamVeraSans-Roman-32"/>
       <use x="63.623046875" xlink:href="#BitstreamVeraSans-Roman-2e"/>
       <use x="95.41015625" xlink:href="#BitstreamVeraSans-Roman-35"/>
      </g>
     </g>
    </g>
    <g id="ytick_8">
     <g id="line2d_31">
      <g>
       <use style="stroke:#000000;stroke-width:0.5;" x="180.0" xlink:href="#m3ea1f363e2" y="196.0"/>
      </g>
     </g>
     <g id="line2d_32">
      <g>
       <use style="stroke:#000000;stroke-width:0.5;" x="1296.0" xlink:href="#ma2aa509a79" y="196.0"/>
      </g>
     </g>
     <g id="text_15">
      <!-- 3.0 -->
      <defs>
       <path d="M 40.578125 39.3125 
Q 47.65625 37.796875 51.625 33 
Q 55.609375 28.21875 55.609375 21.1875 
Q 55.609375 10.40625 48.1875 4.484375 
Q 40.765625 -1.421875 27.09375 -1.421875 
Q 22.515625 -1.421875 17.65625 -0.515625 
Q 12.796875 0.390625 7.625 2.203125 
L 7.625 11.71875 
Q 11.71875 9.328125 16.59375 8.109375 
Q 21.484375 6.890625 26.8125 6.890625 
Q 36.078125 6.890625 40.9375 10.546875 
Q 45.796875 14.203125 45.796875 21.1875 
Q 45.796875 27.640625 41.28125 31.265625 
Q 36.765625 34.90625 28.71875 34.90625 
L 20.21875 34.90625 
L 20.21875 43.015625 
L 29.109375 43.015625 
Q 36.375 43.015625 40.234375 45.921875 
Q 44.09375 48.828125 44.09375 54.296875 
Q 44.09375 59.90625 40.109375 62.90625 
Q 36.140625 65.921875 28.71875 65.921875 
Q 24.65625 65.921875 20.015625 65.03125 
Q 15.375 64.15625 9.8125 62.3125 
L 9.8125 71.09375 
Q 15.4375 72.65625 20.34375 73.4375 
Q 25.25 74.21875 29.59375 74.21875 
Q 40.828125 74.21875 47.359375 69.109375 
Q 53.90625 64.015625 53.90625 55.328125 
Q 53.90625 49.265625 50.4375 45.09375 
Q 46.96875 40.921875 40.578125 39.3125 
" id="BitstreamVeraSans-Roman-33"/>
      </defs>
      <g transform="translate(160.096875 198.759375)scale(0.1 -0.1)">
       <use xlink:href="#BitstreamVeraSans-Roman-33"/>
       <use x="63.623046875" xlink:href="#BitstreamVeraSans-Roman-2e"/>
       <use x="95.41015625" xlink:href="#BitstreamVeraSans-Roman-30"/>
      </g>
     </g>
    </g>
    <g id="ytick_9">
     <g id="line2d_33">
      <g>
       <use style="stroke:#000000;stroke-width:0.5;" x="180.0" xlink:href="#m3ea1f363e2" y="134.0"/>
      </g>
     </g>
     <g id="line2d_34">
      <g>
       <use style="stroke:#000000;stroke-width:0.5;" x="1296.0" xlink:href="#ma2aa509a79" y="134.0"/>
      </g>
     </g>
     <g id="text_16">
      <!-- 3.5 -->
      <g transform="translate(160.096875 136.759375)scale(0.1 -0.1)">
       <use xlink:href="#BitstreamVeraSans-Roman-33"/>
       <use x="63.623046875" xlink:href="#BitstreamVeraSans-Roman-2e"/>
       <use x="95.41015625" xlink:href="#BitstreamVeraSans-Roman-35"/>
      </g>
     </g>
    </g>
    <g id="ytick_10">
     <g id="line2d_35">
      <g>
       <use style="stroke:#000000;stroke-width:0.5;" x="180.0" xlink:href="#m3ea1f363e2" y="72.0"/>
      </g>
     </g>
     <g id="line2d_36">
      <g>
       <use style="stroke:#000000;stroke-width:0.5;" x="1296.0" xlink:href="#ma2aa509a79" y="72.0"/>
      </g>
     </g>
     <g id="text_17">
      <!-- 4.0 -->
      <g transform="translate(160.096875 74.759375)scale(0.1 -0.1)">
       <use xlink:href="#BitstreamVeraSans-Roman-34"/>
       <use x="63.623046875" xlink:href="#BitstreamVeraSans-Roman-2e"/>
       <use x="95.41015625" xlink:href="#BitstreamVeraSans-Roman-30"/>
      </g>
     </g>
    </g>
   </g>
  </g>
 </g>
 <defs>
  <clipPath id="p0233aef954">
   <rect height="558.0" width="1116.0" x="180.0" y="72.0"/>
  </clipPath>
 </defs>
</svg>
